<mxfile host="Electron" modified="2024-10-12T09:16:55.296Z" agent="Mozilla/5.0 (Windows NT 10.0; Win64; x64) AppleWebKit/537.36 (KHTML, like Gecko) draw.io/24.1.0 Chrome/120.0.6099.109 Electron/28.1.0 Safari/537.36" etag="yLFyoK2CPtL20dqTdnYz" version="24.1.0" type="device">
  <diagram name="Page-1" id="3eipiM13SaRnoOBe9VI4">
    <mxGraphModel dx="2759" dy="2229" grid="1" gridSize="10" guides="1" tooltips="1" connect="1" arrows="1" fold="1" page="1" pageScale="1" pageWidth="850" pageHeight="1100" math="0" shadow="0">
      <root>
        <mxCell id="0" />
        <mxCell id="1" parent="0" />
        <mxCell id="kqPq2TRe0CuJG675xK0t-1" value="Room" style="rounded=0;whiteSpace=wrap;html=1;" vertex="1" parent="1">
          <mxGeometry x="350" y="280" width="120" height="60" as="geometry" />
        </mxCell>
        <mxCell id="kqPq2TRe0CuJG675xK0t-2" value="Uses" style="rhombus;whiteSpace=wrap;html=1;" vertex="1" parent="1">
          <mxGeometry x="170" y="270" width="80" height="80" as="geometry" />
        </mxCell>
        <mxCell id="kqPq2TRe0CuJG675xK0t-3" value="Tool" style="rounded=0;whiteSpace=wrap;html=1;" vertex="1" parent="1">
          <mxGeometry x="-70" y="280" width="120" height="60" as="geometry" />
        </mxCell>
        <mxCell id="kqPq2TRe0CuJG675xK0t-4" value="" style="endArrow=none;html=1;rounded=0;entryX=1;entryY=0.5;entryDx=0;entryDy=0;exitX=0;exitY=0.5;exitDx=0;exitDy=0;" edge="1" parent="1" source="kqPq2TRe0CuJG675xK0t-1" target="kqPq2TRe0CuJG675xK0t-2">
          <mxGeometry width="50" height="50" relative="1" as="geometry">
            <mxPoint x="350" y="310" as="sourcePoint" />
            <mxPoint x="400" y="260" as="targetPoint" />
          </mxGeometry>
        </mxCell>
        <mxCell id="kqPq2TRe0CuJG675xK0t-5" value="" style="endArrow=none;html=1;rounded=0;entryX=1;entryY=0.5;entryDx=0;entryDy=0;exitX=0;exitY=0.5;exitDx=0;exitDy=0;" edge="1" parent="1" source="kqPq2TRe0CuJG675xK0t-2" target="kqPq2TRe0CuJG675xK0t-3">
          <mxGeometry width="50" height="50" relative="1" as="geometry">
            <mxPoint x="350" y="310" as="sourcePoint" />
            <mxPoint x="400" y="260" as="targetPoint" />
            <Array as="points" />
          </mxGeometry>
        </mxCell>
        <mxCell id="kqPq2TRe0CuJG675xK0t-6" value="works on" style="rhombus;whiteSpace=wrap;html=1;" vertex="1" parent="1">
          <mxGeometry x="370" y="120" width="80" height="80" as="geometry" />
        </mxCell>
        <mxCell id="kqPq2TRe0CuJG675xK0t-7" value="Employee" style="rounded=0;whiteSpace=wrap;html=1;" vertex="1" parent="1">
          <mxGeometry x="350" y="-40" width="120" height="60" as="geometry" />
        </mxCell>
        <mxCell id="kqPq2TRe0CuJG675xK0t-8" value="" style="endArrow=none;html=1;rounded=0;entryX=0.5;entryY=1;entryDx=0;entryDy=0;exitX=0.5;exitY=0;exitDx=0;exitDy=0;" edge="1" parent="1" source="kqPq2TRe0CuJG675xK0t-6" target="kqPq2TRe0CuJG675xK0t-7">
          <mxGeometry width="50" height="50" relative="1" as="geometry">
            <mxPoint x="390" y="100" as="sourcePoint" />
            <mxPoint x="440" y="50" as="targetPoint" />
          </mxGeometry>
        </mxCell>
        <mxCell id="kqPq2TRe0CuJG675xK0t-9" value="" style="endArrow=none;html=1;rounded=0;entryX=0.5;entryY=1;entryDx=0;entryDy=0;exitX=0.5;exitY=0;exitDx=0;exitDy=0;" edge="1" parent="1" source="kqPq2TRe0CuJG675xK0t-1" target="kqPq2TRe0CuJG675xK0t-6">
          <mxGeometry width="50" height="50" relative="1" as="geometry">
            <mxPoint x="300" y="240" as="sourcePoint" />
            <mxPoint x="350" y="190" as="targetPoint" />
          </mxGeometry>
        </mxCell>
        <mxCell id="kqPq2TRe0CuJG675xK0t-10" value="works with" style="rhombus;whiteSpace=wrap;html=1;" vertex="1" parent="1">
          <mxGeometry x="90" y="70" width="80" height="80" as="geometry" />
        </mxCell>
        <mxCell id="kqPq2TRe0CuJG675xK0t-11" value="" style="endArrow=none;html=1;rounded=0;exitX=1;exitY=0;exitDx=0;exitDy=0;" edge="1" parent="1" source="kqPq2TRe0CuJG675xK0t-10" target="kqPq2TRe0CuJG675xK0t-7">
          <mxGeometry width="50" height="50" relative="1" as="geometry">
            <mxPoint x="220" y="70" as="sourcePoint" />
            <mxPoint x="270" y="20" as="targetPoint" />
          </mxGeometry>
        </mxCell>
        <mxCell id="kqPq2TRe0CuJG675xK0t-13" value="" style="endArrow=none;html=1;rounded=0;exitX=0.5;exitY=0;exitDx=0;exitDy=0;" edge="1" parent="1" source="kqPq2TRe0CuJG675xK0t-3" target="kqPq2TRe0CuJG675xK0t-10">
          <mxGeometry width="50" height="50" relative="1" as="geometry">
            <mxPoint x="30" y="230" as="sourcePoint" />
            <mxPoint x="80" y="180" as="targetPoint" />
          </mxGeometry>
        </mxCell>
        <mxCell id="kqPq2TRe0CuJG675xK0t-14" value="Has" style="rhombus;whiteSpace=wrap;html=1;" vertex="1" parent="1">
          <mxGeometry x="370" y="480" width="80" height="80" as="geometry" />
        </mxCell>
        <mxCell id="kqPq2TRe0CuJG675xK0t-15" value="House" style="rounded=0;whiteSpace=wrap;html=1;" vertex="1" parent="1">
          <mxGeometry x="350" y="670" width="120" height="60" as="geometry" />
        </mxCell>
        <mxCell id="kqPq2TRe0CuJG675xK0t-16" value="" style="endArrow=none;html=1;rounded=0;exitX=0.5;exitY=1;exitDx=0;exitDy=0;entryX=0.5;entryY=0;entryDx=0;entryDy=0;" edge="1" parent="1" source="kqPq2TRe0CuJG675xK0t-1" target="kqPq2TRe0CuJG675xK0t-14">
          <mxGeometry width="50" height="50" relative="1" as="geometry">
            <mxPoint x="510" y="320" as="sourcePoint" />
            <mxPoint x="560" y="270" as="targetPoint" />
          </mxGeometry>
        </mxCell>
        <mxCell id="kqPq2TRe0CuJG675xK0t-17" value="Material" style="rounded=0;whiteSpace=wrap;html=1;" vertex="1" parent="1">
          <mxGeometry x="-30" y="560" width="120" height="60" as="geometry" />
        </mxCell>
        <mxCell id="kqPq2TRe0CuJG675xK0t-18" value="" style="endArrow=none;html=1;rounded=0;entryX=0.5;entryY=1;entryDx=0;entryDy=0;exitX=0.5;exitY=0;exitDx=0;exitDy=0;" edge="1" parent="1" source="kqPq2TRe0CuJG675xK0t-15" target="kqPq2TRe0CuJG675xK0t-14">
          <mxGeometry width="50" height="50" relative="1" as="geometry">
            <mxPoint x="380" y="630" as="sourcePoint" />
            <mxPoint x="430" y="580" as="targetPoint" />
          </mxGeometry>
        </mxCell>
        <mxCell id="kqPq2TRe0CuJG675xK0t-19" value="" style="endArrow=none;html=1;rounded=0;exitX=1;exitY=0.5;exitDx=0;exitDy=0;entryX=0;entryY=0;entryDx=0;entryDy=0;" edge="1" parent="1" source="kqPq2TRe0CuJG675xK0t-17" target="kqPq2TRe0CuJG675xK0t-21">
          <mxGeometry width="50" height="50" relative="1" as="geometry">
            <mxPoint x="130" y="590" as="sourcePoint" />
            <mxPoint x="180" y="540" as="targetPoint" />
          </mxGeometry>
        </mxCell>
        <mxCell id="kqPq2TRe0CuJG675xK0t-20" value="Works for" style="rhombus;whiteSpace=wrap;html=1;" vertex="1" parent="1">
          <mxGeometry x="-20" y="400" width="80" height="80" as="geometry" />
        </mxCell>
        <mxCell id="kqPq2TRe0CuJG675xK0t-21" value="made out of" style="rhombus;whiteSpace=wrap;html=1;" vertex="1" parent="1">
          <mxGeometry x="150" y="650" width="80" height="80" as="geometry" />
        </mxCell>
        <mxCell id="kqPq2TRe0CuJG675xK0t-22" value="" style="endArrow=none;html=1;rounded=0;exitX=1;exitY=0.5;exitDx=0;exitDy=0;entryX=0;entryY=0.5;entryDx=0;entryDy=0;" edge="1" parent="1" source="kqPq2TRe0CuJG675xK0t-21" target="kqPq2TRe0CuJG675xK0t-15">
          <mxGeometry width="50" height="50" relative="1" as="geometry">
            <mxPoint x="270" y="720" as="sourcePoint" />
            <mxPoint x="320" y="670" as="targetPoint" />
          </mxGeometry>
        </mxCell>
        <mxCell id="kqPq2TRe0CuJG675xK0t-23" value="" style="endArrow=none;html=1;rounded=0;entryX=0.5;entryY=1;entryDx=0;entryDy=0;exitX=0.5;exitY=0;exitDx=0;exitDy=0;" edge="1" parent="1" source="kqPq2TRe0CuJG675xK0t-17" target="kqPq2TRe0CuJG675xK0t-20">
          <mxGeometry width="50" height="50" relative="1" as="geometry">
            <mxPoint x="-130" y="550" as="sourcePoint" />
            <mxPoint x="-80" y="500" as="targetPoint" />
          </mxGeometry>
        </mxCell>
        <mxCell id="kqPq2TRe0CuJG675xK0t-24" value="" style="endArrow=none;html=1;rounded=0;entryX=0.5;entryY=1;entryDx=0;entryDy=0;exitX=0.5;exitY=0;exitDx=0;exitDy=0;" edge="1" parent="1" source="kqPq2TRe0CuJG675xK0t-20" target="kqPq2TRe0CuJG675xK0t-3">
          <mxGeometry width="50" height="50" relative="1" as="geometry">
            <mxPoint x="-130" y="460" as="sourcePoint" />
            <mxPoint x="-80" y="410" as="targetPoint" />
          </mxGeometry>
        </mxCell>
        <mxCell id="kqPq2TRe0CuJG675xK0t-25" value="Order" style="rounded=0;whiteSpace=wrap;html=1;" vertex="1" parent="1">
          <mxGeometry x="690" y="660" width="120" height="60" as="geometry" />
        </mxCell>
        <mxCell id="kqPq2TRe0CuJG675xK0t-26" value="for" style="rhombus;whiteSpace=wrap;html=1;" vertex="1" parent="1">
          <mxGeometry x="550" y="660" width="80" height="80" as="geometry" />
        </mxCell>
        <mxCell id="kqPq2TRe0CuJG675xK0t-27" value="" style="endArrow=none;html=1;rounded=0;exitX=1;exitY=0.5;exitDx=0;exitDy=0;entryX=0;entryY=0.5;entryDx=0;entryDy=0;" edge="1" parent="1" source="kqPq2TRe0CuJG675xK0t-15" target="kqPq2TRe0CuJG675xK0t-26">
          <mxGeometry width="50" height="50" relative="1" as="geometry">
            <mxPoint x="480" y="730" as="sourcePoint" />
            <mxPoint x="530" y="680" as="targetPoint" />
          </mxGeometry>
        </mxCell>
        <mxCell id="kqPq2TRe0CuJG675xK0t-28" value="" style="endArrow=none;html=1;rounded=0;exitX=1;exitY=0.5;exitDx=0;exitDy=0;entryX=0;entryY=0.5;entryDx=0;entryDy=0;" edge="1" parent="1" source="kqPq2TRe0CuJG675xK0t-26" target="kqPq2TRe0CuJG675xK0t-25">
          <mxGeometry width="50" height="50" relative="1" as="geometry">
            <mxPoint x="630" y="770" as="sourcePoint" />
            <mxPoint x="680" y="720" as="targetPoint" />
          </mxGeometry>
        </mxCell>
        <mxCell id="kqPq2TRe0CuJG675xK0t-74" value="1 - 1" style="edgeLabel;html=1;align=center;verticalAlign=middle;resizable=0;points=[];" vertex="1" connectable="0" parent="kqPq2TRe0CuJG675xK0t-28">
          <mxGeometry x="0.6008" relative="1" as="geometry">
            <mxPoint y="-12" as="offset" />
          </mxGeometry>
        </mxCell>
        <mxCell id="kqPq2TRe0CuJG675xK0t-29" value="Vehicles" style="rounded=0;whiteSpace=wrap;html=1;" vertex="1" parent="1">
          <mxGeometry x="670" y="120" width="120" height="60" as="geometry" />
        </mxCell>
        <mxCell id="kqPq2TRe0CuJG675xK0t-30" value="Can drive" style="rhombus;whiteSpace=wrap;html=1;" vertex="1" parent="1">
          <mxGeometry x="570" y="-10" width="80" height="80" as="geometry" />
        </mxCell>
        <mxCell id="kqPq2TRe0CuJG675xK0t-31" value="" style="endArrow=none;html=1;rounded=0;entryX=1;entryY=0.5;entryDx=0;entryDy=0;exitX=0;exitY=0;exitDx=0;exitDy=0;" edge="1" parent="1" source="kqPq2TRe0CuJG675xK0t-30" target="kqPq2TRe0CuJG675xK0t-7">
          <mxGeometry width="50" height="50" relative="1" as="geometry">
            <mxPoint x="470" y="100" as="sourcePoint" />
            <mxPoint x="520" y="50" as="targetPoint" />
          </mxGeometry>
        </mxCell>
        <mxCell id="kqPq2TRe0CuJG675xK0t-32" value="" style="endArrow=none;html=1;rounded=0;entryX=1;entryY=1;entryDx=0;entryDy=0;exitX=0.5;exitY=0;exitDx=0;exitDy=0;" edge="1" parent="1" source="kqPq2TRe0CuJG675xK0t-29" target="kqPq2TRe0CuJG675xK0t-30">
          <mxGeometry width="50" height="50" relative="1" as="geometry">
            <mxPoint x="420" y="270" as="sourcePoint" />
            <mxPoint x="760" y="-30" as="targetPoint" />
          </mxGeometry>
        </mxCell>
        <mxCell id="kqPq2TRe0CuJG675xK0t-33" value="&lt;u&gt;Id&lt;/u&gt;" style="ellipse;whiteSpace=wrap;html=1;" vertex="1" parent="1">
          <mxGeometry x="-230" y="190" width="90" height="70" as="geometry" />
        </mxCell>
        <mxCell id="kqPq2TRe0CuJG675xK0t-34" value="Name" style="ellipse;whiteSpace=wrap;html=1;" vertex="1" parent="1">
          <mxGeometry x="-235" y="330" width="100" height="80" as="geometry" />
        </mxCell>
        <mxCell id="kqPq2TRe0CuJG675xK0t-35" value="" style="endArrow=none;html=1;rounded=0;entryX=0;entryY=0.5;entryDx=0;entryDy=0;" edge="1" parent="1" target="kqPq2TRe0CuJG675xK0t-3">
          <mxGeometry width="50" height="50" relative="1" as="geometry">
            <mxPoint x="-140" y="360" as="sourcePoint" />
            <mxPoint x="-80" y="320" as="targetPoint" />
          </mxGeometry>
        </mxCell>
        <mxCell id="kqPq2TRe0CuJG675xK0t-36" value="" style="endArrow=none;html=1;rounded=0;entryX=0;entryY=0.5;entryDx=0;entryDy=0;exitX=0.956;exitY=0.818;exitDx=0;exitDy=0;exitPerimeter=0;" edge="1" parent="1" source="kqPq2TRe0CuJG675xK0t-33" target="kqPq2TRe0CuJG675xK0t-3">
          <mxGeometry width="50" height="50" relative="1" as="geometry">
            <mxPoint x="-140" y="300" as="sourcePoint" />
            <mxPoint x="-90" y="250" as="targetPoint" />
          </mxGeometry>
        </mxCell>
        <mxCell id="kqPq2TRe0CuJG675xK0t-37" value="&lt;u&gt;Id&lt;/u&gt;" style="ellipse;whiteSpace=wrap;html=1;" vertex="1" parent="1">
          <mxGeometry x="-190" y="610" width="90" height="80" as="geometry" />
        </mxCell>
        <mxCell id="kqPq2TRe0CuJG675xK0t-38" value="name" style="ellipse;whiteSpace=wrap;html=1;" vertex="1" parent="1">
          <mxGeometry x="-70" y="680" width="90" height="80" as="geometry" />
        </mxCell>
        <mxCell id="kqPq2TRe0CuJG675xK0t-40" value="name" style="ellipse;whiteSpace=wrap;html=1;" vertex="1" parent="1">
          <mxGeometry x="500" y="350" width="90" height="80" as="geometry" />
        </mxCell>
        <mxCell id="kqPq2TRe0CuJG675xK0t-41" value="name" style="ellipse;whiteSpace=wrap;html=1;" vertex="1" parent="1">
          <mxGeometry x="260" y="-180" width="90" height="80" as="geometry" />
        </mxCell>
        <mxCell id="kqPq2TRe0CuJG675xK0t-42" value="name" style="ellipse;whiteSpace=wrap;html=1;" vertex="1" parent="1">
          <mxGeometry x="780" y="200" width="90" height="80" as="geometry" />
        </mxCell>
        <mxCell id="kqPq2TRe0CuJG675xK0t-43" value="" style="endArrow=none;html=1;rounded=0;exitX=1;exitY=0;exitDx=0;exitDy=0;entryX=0;entryY=0.5;entryDx=0;entryDy=0;" edge="1" parent="1" source="kqPq2TRe0CuJG675xK0t-37" target="kqPq2TRe0CuJG675xK0t-17">
          <mxGeometry width="50" height="50" relative="1" as="geometry">
            <mxPoint x="-120" y="610" as="sourcePoint" />
            <mxPoint x="-70" y="560" as="targetPoint" />
          </mxGeometry>
        </mxCell>
        <mxCell id="kqPq2TRe0CuJG675xK0t-44" value="" style="endArrow=none;html=1;rounded=0;entryX=0.5;entryY=1;entryDx=0;entryDy=0;exitX=0.678;exitY=0.028;exitDx=0;exitDy=0;exitPerimeter=0;" edge="1" parent="1" source="kqPq2TRe0CuJG675xK0t-38" target="kqPq2TRe0CuJG675xK0t-17">
          <mxGeometry width="50" height="50" relative="1" as="geometry">
            <mxPoint x="-20" y="680" as="sourcePoint" />
            <mxPoint x="30" y="630" as="targetPoint" />
          </mxGeometry>
        </mxCell>
        <mxCell id="kqPq2TRe0CuJG675xK0t-45" value="" style="endArrow=none;html=1;rounded=0;exitX=1;exitY=0.5;exitDx=0;exitDy=0;entryX=0.31;entryY=0.019;entryDx=0;entryDy=0;entryPerimeter=0;" edge="1" parent="1" source="kqPq2TRe0CuJG675xK0t-1" target="kqPq2TRe0CuJG675xK0t-40">
          <mxGeometry width="50" height="50" relative="1" as="geometry">
            <mxPoint x="510" y="320" as="sourcePoint" />
            <mxPoint x="560" y="270" as="targetPoint" />
          </mxGeometry>
        </mxCell>
        <mxCell id="kqPq2TRe0CuJG675xK0t-46" value="&lt;u&gt;Id&lt;/u&gt;" style="ellipse;whiteSpace=wrap;html=1;" vertex="1" parent="1">
          <mxGeometry x="510" y="185" width="90" height="80" as="geometry" />
        </mxCell>
        <mxCell id="kqPq2TRe0CuJG675xK0t-47" value="" style="endArrow=none;html=1;rounded=0;exitX=1;exitY=0.25;exitDx=0;exitDy=0;entryX=0;entryY=1;entryDx=0;entryDy=0;" edge="1" parent="1" source="kqPq2TRe0CuJG675xK0t-1" target="kqPq2TRe0CuJG675xK0t-46">
          <mxGeometry width="50" height="50" relative="1" as="geometry">
            <mxPoint x="510" y="320" as="sourcePoint" />
            <mxPoint x="560" y="270" as="targetPoint" />
          </mxGeometry>
        </mxCell>
        <mxCell id="kqPq2TRe0CuJG675xK0t-48" value="&lt;u&gt;Id&lt;/u&gt;" style="ellipse;whiteSpace=wrap;html=1;" vertex="1" parent="1">
          <mxGeometry x="370" y="-230" width="100" height="80" as="geometry" />
        </mxCell>
        <mxCell id="kqPq2TRe0CuJG675xK0t-49" value="Speciality" style="ellipse;whiteSpace=wrap;html=1;" vertex="1" parent="1">
          <mxGeometry x="470" y="-170" width="90" height="80" as="geometry" />
        </mxCell>
        <mxCell id="kqPq2TRe0CuJG675xK0t-50" value="experience" style="ellipse;whiteSpace=wrap;html=1;" vertex="1" parent="1">
          <mxGeometry x="190" y="-80" width="90" height="80" as="geometry" />
        </mxCell>
        <mxCell id="kqPq2TRe0CuJG675xK0t-51" value="Type of driving License" style="ellipse;whiteSpace=wrap;html=1;" vertex="1" parent="1">
          <mxGeometry x="520" y="-90" width="90" height="80" as="geometry" />
        </mxCell>
        <mxCell id="kqPq2TRe0CuJG675xK0t-52" value="" style="endArrow=none;html=1;rounded=0;exitX=1;exitY=0.5;exitDx=0;exitDy=0;entryX=0;entryY=0.5;entryDx=0;entryDy=0;" edge="1" parent="1" source="kqPq2TRe0CuJG675xK0t-50" target="kqPq2TRe0CuJG675xK0t-7">
          <mxGeometry width="50" height="50" relative="1" as="geometry">
            <mxPoint x="310" y="-40" as="sourcePoint" />
            <mxPoint x="360" y="-90" as="targetPoint" />
          </mxGeometry>
        </mxCell>
        <mxCell id="kqPq2TRe0CuJG675xK0t-53" value="" style="endArrow=none;html=1;rounded=0;entryX=1;entryY=1;entryDx=0;entryDy=0;" edge="1" parent="1" source="kqPq2TRe0CuJG675xK0t-7" target="kqPq2TRe0CuJG675xK0t-41">
          <mxGeometry width="50" height="50" relative="1" as="geometry">
            <mxPoint x="350" y="-50" as="sourcePoint" />
            <mxPoint x="400" y="-100" as="targetPoint" />
          </mxGeometry>
        </mxCell>
        <mxCell id="kqPq2TRe0CuJG675xK0t-54" value="" style="endArrow=none;html=1;rounded=0;" edge="1" parent="1" source="kqPq2TRe0CuJG675xK0t-7" target="kqPq2TRe0CuJG675xK0t-48">
          <mxGeometry width="50" height="50" relative="1" as="geometry">
            <mxPoint x="420" y="-60" as="sourcePoint" />
            <mxPoint x="470" y="-110" as="targetPoint" />
          </mxGeometry>
        </mxCell>
        <mxCell id="kqPq2TRe0CuJG675xK0t-55" value="" style="endArrow=none;html=1;rounded=0;" edge="1" parent="1" source="kqPq2TRe0CuJG675xK0t-7" target="kqPq2TRe0CuJG675xK0t-49">
          <mxGeometry width="50" height="50" relative="1" as="geometry">
            <mxPoint x="190" y="-120" as="sourcePoint" />
            <mxPoint x="240" y="-170" as="targetPoint" />
          </mxGeometry>
        </mxCell>
        <mxCell id="kqPq2TRe0CuJG675xK0t-56" value="" style="endArrow=none;html=1;rounded=0;entryX=0.058;entryY=0.664;entryDx=0;entryDy=0;entryPerimeter=0;" edge="1" parent="1" source="kqPq2TRe0CuJG675xK0t-7" target="kqPq2TRe0CuJG675xK0t-51">
          <mxGeometry width="50" height="50" relative="1" as="geometry">
            <mxPoint x="590" y="-110" as="sourcePoint" />
            <mxPoint x="640" y="-160" as="targetPoint" />
          </mxGeometry>
        </mxCell>
        <mxCell id="kqPq2TRe0CuJG675xK0t-57" value="Type of license needed" style="ellipse;whiteSpace=wrap;html=1;" vertex="1" parent="1">
          <mxGeometry x="820" y="60" width="90" height="80" as="geometry" />
        </mxCell>
        <mxCell id="kqPq2TRe0CuJG675xK0t-58" value="&lt;u&gt;Id&lt;/u&gt;" style="ellipse;whiteSpace=wrap;html=1;" vertex="1" parent="1">
          <mxGeometry x="710" y="-30" width="100" height="80" as="geometry" />
        </mxCell>
        <mxCell id="kqPq2TRe0CuJG675xK0t-59" value="" style="endArrow=none;html=1;rounded=0;" edge="1" parent="1" source="kqPq2TRe0CuJG675xK0t-29" target="kqPq2TRe0CuJG675xK0t-58">
          <mxGeometry width="50" height="50" relative="1" as="geometry">
            <mxPoint x="770" y="140" as="sourcePoint" />
            <mxPoint x="820" y="90" as="targetPoint" />
          </mxGeometry>
        </mxCell>
        <mxCell id="kqPq2TRe0CuJG675xK0t-60" value="" style="endArrow=none;html=1;rounded=0;" edge="1" parent="1" source="kqPq2TRe0CuJG675xK0t-29" target="kqPq2TRe0CuJG675xK0t-57">
          <mxGeometry width="50" height="50" relative="1" as="geometry">
            <mxPoint x="980" y="180" as="sourcePoint" />
            <mxPoint x="1030" y="130" as="targetPoint" />
          </mxGeometry>
        </mxCell>
        <mxCell id="kqPq2TRe0CuJG675xK0t-61" value="" style="endArrow=none;html=1;rounded=0;" edge="1" parent="1" source="kqPq2TRe0CuJG675xK0t-42" target="kqPq2TRe0CuJG675xK0t-29">
          <mxGeometry width="50" height="50" relative="1" as="geometry">
            <mxPoint x="650" y="260" as="sourcePoint" />
            <mxPoint x="700" y="210" as="targetPoint" />
          </mxGeometry>
        </mxCell>
        <mxCell id="kqPq2TRe0CuJG675xK0t-62" value="&lt;u&gt;Id&lt;/u&gt;" style="ellipse;whiteSpace=wrap;html=1;" vertex="1" parent="1">
          <mxGeometry x="260" y="740" width="90" height="80" as="geometry" />
        </mxCell>
        <mxCell id="kqPq2TRe0CuJG675xK0t-63" value="amount of rooms" style="ellipse;whiteSpace=wrap;html=1;" vertex="1" parent="1">
          <mxGeometry x="365" y="790" width="90" height="80" as="geometry" />
        </mxCell>
        <mxCell id="kqPq2TRe0CuJG675xK0t-64" value="amount of floors" style="ellipse;whiteSpace=wrap;html=1;" vertex="1" parent="1">
          <mxGeometry x="480" y="760" width="90" height="80" as="geometry" />
        </mxCell>
        <mxCell id="kqPq2TRe0CuJG675xK0t-65" value="" style="endArrow=none;html=1;rounded=0;" edge="1" parent="1" source="kqPq2TRe0CuJG675xK0t-62" target="kqPq2TRe0CuJG675xK0t-15">
          <mxGeometry width="50" height="50" relative="1" as="geometry">
            <mxPoint x="160" y="860" as="sourcePoint" />
            <mxPoint x="210" y="810" as="targetPoint" />
          </mxGeometry>
        </mxCell>
        <mxCell id="kqPq2TRe0CuJG675xK0t-66" value="" style="endArrow=none;html=1;rounded=0;" edge="1" parent="1" source="kqPq2TRe0CuJG675xK0t-63" target="kqPq2TRe0CuJG675xK0t-15">
          <mxGeometry width="50" height="50" relative="1" as="geometry">
            <mxPoint x="200" y="860" as="sourcePoint" />
            <mxPoint x="250" y="810" as="targetPoint" />
          </mxGeometry>
        </mxCell>
        <mxCell id="kqPq2TRe0CuJG675xK0t-67" value="" style="endArrow=none;html=1;rounded=0;" edge="1" parent="1" source="kqPq2TRe0CuJG675xK0t-64" target="kqPq2TRe0CuJG675xK0t-15">
          <mxGeometry width="50" height="50" relative="1" as="geometry">
            <mxPoint x="110" y="800" as="sourcePoint" />
            <mxPoint x="160" y="750" as="targetPoint" />
          </mxGeometry>
        </mxCell>
        <mxCell id="kqPq2TRe0CuJG675xK0t-68" value="&lt;u&gt;Id&lt;/u&gt;" style="ellipse;whiteSpace=wrap;html=1;" vertex="1" parent="1">
          <mxGeometry x="705" y="760" width="90" height="80" as="geometry" />
        </mxCell>
        <mxCell id="kqPq2TRe0CuJG675xK0t-69" value="Price" style="ellipse;whiteSpace=wrap;html=1;" vertex="1" parent="1">
          <mxGeometry x="850" y="700" width="90" height="80" as="geometry" />
        </mxCell>
        <mxCell id="kqPq2TRe0CuJG675xK0t-70" value="speed delivery" style="ellipse;whiteSpace=wrap;html=1;" vertex="1" parent="1">
          <mxGeometry x="820" y="560" width="90" height="80" as="geometry" />
        </mxCell>
        <mxCell id="kqPq2TRe0CuJG675xK0t-71" value="" style="endArrow=none;html=1;rounded=0;" edge="1" parent="1" source="kqPq2TRe0CuJG675xK0t-68" target="kqPq2TRe0CuJG675xK0t-25">
          <mxGeometry width="50" height="50" relative="1" as="geometry">
            <mxPoint x="770" y="880" as="sourcePoint" />
            <mxPoint x="820" y="830" as="targetPoint" />
          </mxGeometry>
        </mxCell>
        <mxCell id="kqPq2TRe0CuJG675xK0t-72" value="" style="endArrow=none;html=1;rounded=0;" edge="1" parent="1" source="kqPq2TRe0CuJG675xK0t-69" target="kqPq2TRe0CuJG675xK0t-25">
          <mxGeometry width="50" height="50" relative="1" as="geometry">
            <mxPoint x="750" y="880" as="sourcePoint" />
            <mxPoint x="800" y="830" as="targetPoint" />
          </mxGeometry>
        </mxCell>
        <mxCell id="kqPq2TRe0CuJG675xK0t-73" value="" style="endArrow=none;html=1;rounded=0;" edge="1" parent="1" source="kqPq2TRe0CuJG675xK0t-70" target="kqPq2TRe0CuJG675xK0t-25">
          <mxGeometry width="50" height="50" relative="1" as="geometry">
            <mxPoint x="710" y="910" as="sourcePoint" />
            <mxPoint x="760" y="860" as="targetPoint" />
          </mxGeometry>
        </mxCell>
        <mxCell id="kqPq2TRe0CuJG675xK0t-75" value="1-1" style="text;html=1;align=center;verticalAlign=middle;resizable=0;points=[];autosize=1;strokeColor=none;fillColor=none;" vertex="1" parent="1">
          <mxGeometry x="460" y="678" width="40" height="30" as="geometry" />
        </mxCell>
        <mxCell id="kqPq2TRe0CuJG675xK0t-76" value="n-1" style="text;html=1;align=center;verticalAlign=middle;resizable=0;points=[];autosize=1;strokeColor=none;fillColor=none;" vertex="1" parent="1">
          <mxGeometry x="320" y="678" width="40" height="30" as="geometry" />
        </mxCell>
        <mxCell id="kqPq2TRe0CuJG675xK0t-77" value="n-1" style="text;html=1;align=center;verticalAlign=middle;resizable=0;points=[];autosize=1;strokeColor=none;fillColor=none;" vertex="1" parent="1">
          <mxGeometry x="90" y="568" width="40" height="30" as="geometry" />
        </mxCell>
        <mxCell id="kqPq2TRe0CuJG675xK0t-78" value="1-n" style="text;html=1;align=center;verticalAlign=middle;resizable=0;points=[];autosize=1;strokeColor=none;fillColor=none;" vertex="1" parent="1">
          <mxGeometry x="20" y="538" width="40" height="30" as="geometry" />
        </mxCell>
        <mxCell id="kqPq2TRe0CuJG675xK0t-79" value="1-n" style="text;html=1;align=center;verticalAlign=middle;resizable=0;points=[];autosize=1;strokeColor=none;fillColor=none;" vertex="1" parent="1">
          <mxGeometry x="-10" y="330" width="40" height="30" as="geometry" />
        </mxCell>
        <mxCell id="kqPq2TRe0CuJG675xK0t-80" value="n-m" style="text;html=1;align=center;verticalAlign=middle;resizable=0;points=[];autosize=1;strokeColor=none;fillColor=none;" vertex="1" parent="1">
          <mxGeometry x="320" y="288" width="40" height="30" as="geometry" />
        </mxCell>
        <mxCell id="kqPq2TRe0CuJG675xK0t-81" value="m-n" style="text;html=1;align=center;verticalAlign=middle;resizable=0;points=[];autosize=1;strokeColor=none;fillColor=none;" vertex="1" parent="1">
          <mxGeometry x="50" y="288" width="40" height="30" as="geometry" />
        </mxCell>
        <mxCell id="kqPq2TRe0CuJG675xK0t-82" value="n-1" style="text;html=1;align=center;verticalAlign=middle;resizable=0;points=[];autosize=1;strokeColor=none;fillColor=none;" vertex="1" parent="1">
          <mxGeometry x="-40" y="238" width="40" height="30" as="geometry" />
        </mxCell>
        <mxCell id="kqPq2TRe0CuJG675xK0t-83" value="1-n" style="text;html=1;align=center;verticalAlign=middle;resizable=0;points=[];autosize=1;strokeColor=none;fillColor=none;" vertex="1" parent="1">
          <mxGeometry x="310" y="18" width="40" height="30" as="geometry" />
        </mxCell>
        <mxCell id="kqPq2TRe0CuJG675xK0t-84" value="1-n" style="text;html=1;align=center;verticalAlign=middle;resizable=0;points=[];autosize=1;strokeColor=none;fillColor=none;" vertex="1" parent="1">
          <mxGeometry x="470" y="-12" width="40" height="30" as="geometry" />
        </mxCell>
        <mxCell id="kqPq2TRe0CuJG675xK0t-85" value="n-1" style="text;html=1;align=center;verticalAlign=middle;resizable=0;points=[];autosize=1;strokeColor=none;fillColor=none;" vertex="1" parent="1">
          <mxGeometry x="660" y="88" width="40" height="30" as="geometry" />
        </mxCell>
        <mxCell id="kqPq2TRe0CuJG675xK0t-86" value="n-m" style="text;html=1;align=center;verticalAlign=middle;resizable=0;points=[];autosize=1;strokeColor=none;fillColor=none;" vertex="1" parent="1">
          <mxGeometry x="405" y="258" width="40" height="30" as="geometry" />
        </mxCell>
        <mxCell id="kqPq2TRe0CuJG675xK0t-87" value="m-n" style="text;html=1;align=center;verticalAlign=middle;resizable=0;points=[];autosize=1;strokeColor=none;fillColor=none;" vertex="1" parent="1">
          <mxGeometry x="405" y="18" width="40" height="30" as="geometry" />
        </mxCell>
        <mxCell id="kqPq2TRe0CuJG675xK0t-88" value="m-1" style="text;html=1;align=center;verticalAlign=middle;resizable=0;points=[];autosize=1;strokeColor=none;fillColor=none;" vertex="1" parent="1">
          <mxGeometry x="410" y="338" width="40" height="30" as="geometry" />
        </mxCell>
        <mxCell id="kqPq2TRe0CuJG675xK0t-89" value="1-m" style="text;html=1;align=center;verticalAlign=middle;resizable=0;points=[];autosize=1;strokeColor=none;fillColor=none;" vertex="1" parent="1">
          <mxGeometry x="400" y="638" width="40" height="30" as="geometry" />
        </mxCell>
      </root>
    </mxGraphModel>
  </diagram>
</mxfile>
